<?xml version="1.0" standalone="no"?>
<!DOCTYPE svg PUBLIC "-//W3C//DTD SVG 20010904//EN"
 "http://www.w3.org/TR/2001/REC-SVG-20010904/DTD/svg10.dtd">
<svg version="1.0" xmlns="http://www.w3.org/2000/svg"
 width="556.000000pt" height="483.000000pt" viewBox="0 0 556.000000 483.000000"
 preserveAspectRatio="xMidYMid meet">
<metadata>
Created by potrace 1.16, written by Peter Selinger 2001-2019
</metadata>
<g transform="translate(0.000000,483.000000) scale(0.100000,-0.100000)"
fill="#000000" stroke="none">
<path d="M1370 4815 c-183 -29 -313 -72 -480 -156 -469 -238 -787 -679 -871
-1209 -20 -121 -17 -380 5 -510 21 -122 65 -275 102 -357 14 -32 33 -74 42
-93 26 -57 133 -222 173 -265 20 -22 63 -69 95 -105 83 -92 705 -702 735 -721
8 -5 684 -9 1604 -9 1535 0 1591 1 1621 19 40 25 631 607 756 745 137 152 216
277 299 471 24 57 70 238 84 332 26 172 22 410 -9 564 -61 303 -176 538 -375
765 -133 153 -294 277 -477 367 -165 81 -269 117 -414 145 -30 6 -79 15 -108
21 -79 16 -356 13 -470 -4 -101 -16 -131 -22 -222 -50 -137 -40 -200 -68 -350
-154 -107 -61 -131 -78 -247 -173 -45 -38 -86 -68 -91 -68 -5 0 -40 28 -78 63
-183 169 -468 313 -719 366 -159 33 -451 41 -605 16z m505 -80 c190 -33 269
-58 435 -138 131 -63 273 -163 390 -274 70 -67 91 -68 150 -7 76 76 251 205
375 274 80 44 279 112 380 130 39 7 92 16 118 21 78 15 352 11 452 -6 206 -35
402 -108 570 -213 281 -174 502 -438 624 -744 45 -115 101 -353 101 -432 0
-14 -21 -16 -154 -16 -85 0 -162 -3 -170 -6 -32 -12 -40 -49 -46 -199 l-5
-150 -85 -3 c-52 -2 -87 -8 -92 -15 -4 -7 -8 -81 -8 -164 l0 -153 -50 0 -50 0
-2 508 -3 507 -240 0 -240 0 -3 -367 -2 -368 -60 0 -60 0 0 159 c0 136 -2 160
-16 165 -9 3 -72 6 -140 6 l-124 0 0 78 c0 80 -9 102 -41 102 -24 0 -44 -28
-45 -64 -4 -117 -3 -113 -29 -118 -20 -4 -25 0 -29 21 -2 14 -4 158 -2 320 l2
295 -33 55 c-19 31 -47 85 -64 121 l-30 65 -157 -3 c-86 -1 -166 -4 -177 -7
-14 -3 -27 -23 -44 -70 -12 -36 -28 -71 -35 -78 -6 -7 -23 -31 -38 -54 l-28
-42 -2 -308 -3 -308 -42 -3 -43 -3 0 76 c0 83 -11 115 -38 115 -34 0 -42 -22
-42 -107 l0 -83 -115 0 c-97 0 -122 3 -155 20 -39 20 -40 22 -34 61 8 49 -2
59 -61 59 -22 0 -45 4 -51 8 -19 12 -27 62 -33 202 l-6 135 -39 0 -38 0 -3
-135 c-2 -74 -8 -148 -12 -165 -8 -27 -14 -30 -53 -33 -25 -2 -50 -8 -57 -14
-16 -13 -17 -54 -3 -63 19 -12 -9 -33 -66 -50 -30 -8 -55 -17 -56 -18 -1 -1
-5 -117 -8 -257 l-5 -255 -27 1 c-16 1 -48 2 -73 3 l-45 1 0 299 0 300 -78
158 c-44 87 -111 224 -151 305 -40 80 -78 152 -86 158 -11 9 -20 8 -41 -2 -22
-10 -59 -75 -183 -318 l-155 -305 -5 -270 -6 -270 -104 -3 c-69 -2 -108 1
-118 9 -12 10 -14 67 -12 363 1 211 6 359 12 371 6 11 19 26 29 33 10 7 28 32
41 55 31 59 31 194 0 252 -46 87 -131 138 -238 143 -84 4 -141 -17 -206 -75
-111 -101 -120 -281 -19 -378 l30 -29 0 -547 0 -547 -52 -4 c-29 -2 -59 -2
-65 0 -10 3 -13 97 -13 426 0 315 -3 425 -12 434 -14 14 -493 18 -501 5 -3 -5
-8 -75 -11 -157 -3 -82 -8 -151 -10 -154 -13 -13 -18 67 -14 240 7 273 38 409
148 643 150 320 443 604 760 738 19 8 51 22 70 30 58 25 135 47 248 72 88 19
139 23 292 24 120 0 213 -4 265 -14z m1728 -713 c14 -17 47 -95 47 -112 0 -6
-34 -10 -77 -10 -43 0 -84 -4 -91 -9 -11 -7 -14 -129 -14 -667 0 -363 -2 -685
-5 -716 l-6 -58 -103 0 -104 0 0 690 0 689 40 62 c22 34 40 65 40 69 0 4 7 23
15 43 l14 35 115 0 c95 1 117 -2 129 -16z m-2554 -100 c19 -9 48 -34 65 -55
25 -32 28 -40 16 -48 -15 -9 -348 -11 -363 -2 -10 6 20 52 51 78 57 46 168 60
231 27z m751 -229 c40 -82 95 -195 124 -252 l51 -104 5 -371 5 -371 35 0 c32
0 35 3 40 35 l5 35 128 3 c70 1 127 -1 127 -5 0 -4 1 -53 3 -108 l2 -100 -436
-3 -437 -2 -4 47 c-2 27 -4 220 -3 431 l0 383 134 264 c73 146 137 265 141
265 4 0 40 -66 80 -147z m1892 -3 c-1 -63 -2 -368 -2 -677 l0 -563 -70 0 -70
0 0 78 c0 42 0 259 -1 482 0 223 0 494 0 603 l1 198 71 -3 72 -3 -1 -115z
m-2553 35 c12 -12 -17 -61 -48 -82 -30 -20 -46 -23 -138 -23 -76 0 -113 4
-136 16 -38 19 -66 52 -67 76 0 16 16 18 163 20 169 3 217 2 226 -7z m3535
-154 c3 -4 -3 -16 -14 -26 -11 -10 -34 -40 -51 -66 -17 -27 -37 -49 -44 -49
-10 0 -105 130 -105 145 0 9 209 5 214 -4z m-3775 -54 c7 -9 12 -105 13 -283
l3 -269 35 0 35 0 5 280 c4 215 8 280 18 279 6 -1 17 -2 22 -2 10 -2 15 -1064
5 -1074 -3 -3 -16 -3 -30 0 l-24 4 -3 152 -3 151 -27 3 c-41 5 -50 -30 -46
-178 l3 -125 -27 -3 -27 -3 -1 527 c0 515 2 554 30 554 4 0 13 -6 19 -13z
m3642 -196 l26 -33 55 73 c30 41 63 86 73 102 9 15 21 27 26 27 5 0 9 -225 9
-520 l0 -520 -267 2 -268 3 0 190 0 190 63 3 62 3 0 -89 c0 -94 8 -112 47
-112 43 0 45 19 43 439 -1 218 -2 400 -1 404 0 5 25 -22 54 -60 28 -38 64 -84
78 -102z m-1967 -14 c15 -19 26 -39 26 -45 0 -7 27 -25 60 -42 59 -30 60 -31
61 -73 0 -23 0 -188 0 -367 l-1 -325 -154 -3 -154 -2 -6 72 c-4 40 -6 99 -5
130 3 68 -10 88 -57 88 -18 0 -36 5 -40 12 -9 15 -9 432 0 447 4 6 32 18 62
27 42 12 57 22 65 40 19 53 42 73 81 74 30 0 42 -6 62 -33z m2888 -177 c-4
-146 -24 -268 -65 -395 l-32 -100 -5 115 c-6 149 -23 177 -121 210 l-52 17 2
128 c1 71 5 133 8 137 2 5 64 7 136 6 l132 -3 -3 -115z m-4907 50 l0 -55 -145
-5 -145 -5 0 -35 0 -35 145 -5 145 -5 3 -292 2 -293 -133 0 c-153 0 -148 -3
-194 95 l-28 60 -3 304 c-2 167 -1 310 2 318 5 11 38 13 178 11 l173 -3 0 -55z
m2603 -15 c10 -4 12 -75 11 -337 0 -183 -3 -343 -6 -355 -5 -23 -7 -23 -179
-23 l-174 0 0 358 c0 197 2 361 4 363 6 6 326 0 344 -6z m956 -358 l0 -352
-170 0 -169 0 -1 340 c-1 187 0 346 2 353 2 9 46 12 171 12 l168 0 -1 -353z
m1109 72 c53 -27 57 -42 57 -219 0 -91 -3 -175 -6 -187 -6 -22 -10 -23 -145
-23 l-139 0 0 213 c0 118 3 217 7 220 11 12 203 8 226 -4z m-3863 -294 l0
-135 -114 0 -115 0 -3 128 c-2 70 -2 130 0 135 2 4 55 7 118 7 l114 0 0 -135z
m3536 -35 c10 0 14 -14 14 -49 0 -28 -3 -52 -7 -54 -5 -2 -27 -2 -50 1 l-43 4
0 47 c0 57 6 64 44 57 16 -3 35 -6 42 -6z m305 -185 c5 -4 -19 -42 -53 -86
l-61 -79 -288 0 c-158 0 -294 -3 -303 -6 -19 -7 -21 -50 -3 -61 6 -4 121 -6
253 -4 179 2 244 -1 249 -9 5 -8 -22 -40 -71 -86 l-79 -73 -252 -1 c-241 0
-253 -1 -263 -20 -8 -15 -6 -24 10 -40 19 -19 33 -20 220 -20 110 0 200 -3
200 -7 0 -12 -144 -145 -168 -154 -12 -5 -80 -8 -150 -8 -310 2 -330 1 -337
-21 -14 -45 4 -49 212 -52 l194 -3 -33 -36 c-18 -20 -57 -57 -86 -83 l-53 -46
-1556 0 c-1079 1 -1563 4 -1577 12 -31 15 -146 130 -146 145 0 10 16 12 69 8
75 -6 106 8 94 43 -12 36 -34 42 -153 42 l-116 0 -78 80 -79 80 226 0 227 0
16 25 c13 20 14 28 4 40 -10 13 -55 15 -284 15 l-271 0 -78 74 c-44 41 -76 79
-73 84 4 6 94 8 236 6 238 -4 270 0 270 34 0 40 -14 42 -310 42 l-287 0 -61
76 c-34 42 -60 79 -58 83 5 8 4833 14 4847 6z"/>
<path d="M1548 4589 c-21 -12 -23 -40 -6 -57 14 -14 325 -17 346 -3 22 14 10
54 -18 62 -40 11 -303 10 -322 -2z"/>
<path d="M3667 4550 c-138 -5 -156 -10 -157 -45 0 -30 27 -35 171 -35 127 0
150 2 169 18 19 16 21 22 11 40 -6 12 -16 22 -21 22 -4 0 -14 1 -22 3 -7 2
-75 0 -151 -3z"/>
<path d="M1130 4446 c-6 -8 -10 -25 -8 -38 3 -22 6 -23 118 -23 112 0 115 1
118 23 6 44 -13 52 -118 52 -73 0 -101 -4 -110 -14z"/>
<path d="M4190 4451 c-74 -4 -141 -10 -147 -14 -20 -13 -15 -45 8 -57 20 -11
215 -12 286 -2 43 6 55 38 23 64 -12 10 -25 17 -29 16 -3 -1 -67 -4 -141 -7z"/>
<path d="M3132 4348 c-18 -18 -14 -46 7 -58 11 -5 80 -10 153 -10 119 0 134 2
145 19 9 15 8 23 -3 40 -14 20 -24 21 -153 21 -93 0 -141 -4 -149 -12z"/>
<path d="M2050 4333 c-66 -10 -70 -13 -70 -43 l0 -30 215 0 c203 0 215 1 225
20 8 15 6 24 -10 40 -18 18 -32 20 -177 19 -87 -1 -169 -3 -183 -6z"/>
<path d="M4372 4228 c-17 -17 -15 -46 6 -56 9 -5 77 -8 150 -7 145 2 171 11
157 54 -6 20 -13 21 -154 21 -101 0 -151 -4 -159 -12z"/>
<path d="M2407 4052 c-45 -49 -6 -62 188 -62 136 0 155 2 176 19 20 16 22 23
13 38 -10 16 -30 18 -186 21 -159 2 -176 1 -191 -16z"/>
<path d="M3987 4053 c-11 -11 -8 -48 5 -61 8 -8 49 -12 120 -12 96 0 108 2
118 19 13 26 4 48 -23 54 -33 8 -213 8 -220 0z"/>
<path d="M1147 2188 c-11 -9 -15 -21 -11 -35 6 -22 11 -23 103 -24 494 -3 539
2 485 55 -13 14 -54 16 -288 16 -202 0 -276 -3 -289 -12z"/>
<path d="M1812 2188 c-7 -7 -12 -17 -12 -24 0 -31 30 -34 309 -35 240 -1 285
1 298 14 12 11 13 19 4 36 -12 21 -17 21 -299 21 -211 0 -291 -3 -300 -12z"/>
<path d="M2433 2184 c-8 -23 8 -47 38 -55 39 -10 782 -8 801 2 22 12 23 33 2
53 -13 14 -66 16 -425 16 -370 0 -410 -2 -416 -16z"/>
<path d="M3359 2179 c-9 -17 -8 -25 4 -37 13 -12 68 -15 350 -19 330 -5 336
-4 356 16 17 17 19 25 11 41 -10 19 -22 20 -360 20 -345 0 -349 0 -361 -21z"/>
<path d="M4120 2185 c-6 -8 -10 -22 -8 -32 4 -24 46 -29 192 -23 96 4 121 8
129 22 8 12 7 21 -2 32 -19 23 -292 24 -311 1z"/>
<path d="M1342 1948 c-17 -17 -15 -32 6 -51 17 -15 66 -17 492 -16 292 0 481
4 493 10 12 7 17 19 15 37 l-3 27 -495 3 c-377 2 -499 -1 -508 -10z"/>
<path d="M2437 1953 c-12 -11 -8 -50 6 -60 7 -6 223 -11 558 -12 591 -1 575
-3 567 51 l-3 23 -561 3 c-308 1 -564 -1 -567 -5z"/>
<path d="M3637 1953 c-14 -13 -6 -42 15 -57 19 -14 65 -16 303 -16 304 0 320
3 313 51 l-3 24 -311 3 c-171 1 -313 -1 -317 -5z"/>
<path d="M1312 1708 c-17 -17 -15 -55 4 -62 9 -3 109 -6 224 -6 170 0 210 3
220 15 11 13 14 13 27 0 13 -13 85 -15 541 -13 l527 3 3 26 c2 18 -3 29 -15
34 -10 4 -244 8 -519 10 -381 3 -507 1 -525 -9 -19 -9 -29 -9 -49 1 -34 17
-421 18 -438 1z"/>
<path d="M2944 1707 c-18 -10 -18 -41 0 -56 9 -8 95 -11 292 -9 l279 3 3 28
c2 17 -2 29 -12 33 -23 9 -546 10 -562 1z"/>
<path d="M3609 1710 c-6 -4 -9 -20 -7 -36 l3 -29 207 -3 c203 -2 207 -2 219
19 9 17 8 25 -5 38 -14 14 -45 16 -211 17 -107 0 -200 -3 -206 -6z"/>
<path d="M860 1250 c-31 -29 -32 -33 -28 -89 13 -183 299 -378 562 -384 53 -1
96 -3 96 -4 0 -2 -9 -17 -20 -35 -30 -49 -27 -139 5 -194 37 -63 95 -94 177
-94 56 0 71 4 106 30 107 78 121 193 36 306 l-23 32 42 6 c69 11 1483 18 1729
9 212 -8 259 -14 231 -31 -26 -17 -63 -106 -63 -154 0 -57 15 -91 62 -134 74
-71 166 -85 245 -38 65 38 95 92 95 170 0 36 -7 75 -16 93 -9 16 -16 32 -16
36 0 3 39 5 88 5 113 1 187 19 292 72 153 77 270 218 270 326 0 35 -6 49 -31
74 -28 29 -34 30 -87 25 -40 -3 -85 -18 -152 -52 -52 -25 -129 -58 -170 -72
-173 -59 -221 -63 -400 -38 -206 30 -530 40 -1210 38 -654 -2 -740 -5 -1010
-38 -225 -28 -309 -12 -560 106 -153 72 -199 77 -250 29z m158 -71 c24 -10 55
-27 70 -37 30 -22 220 -93 295 -111 64 -15 200 -13 322 5 186 27 418 34 1060
35 602 1 785 -5 1045 -31 203 -21 288 -23 352 -10 81 17 223 68 330 119 145
68 187 57 139 -38 -47 -91 -204 -201 -338 -236 -73 -19 -256 -19 -346 0 -168
35 -269 39 -1187 39 -954 1 -922 2 -1175 -44 -85 -15 -265 -12 -326 6 -180 54
-348 198 -349 301 0 37 26 38 108 2z m690 -419 c34 -21 62 -71 62 -111 0 -35
-31 -89 -61 -104 -88 -46 -179 7 -179 104 0 49 22 86 65 112 39 24 72 24 113
-1z m2260 6 c64 -35 84 -139 36 -195 -63 -75 -192 -38 -208 59 -16 101 88 183
172 136z"/>
<path d="M1607 692 c-22 -25 -21 -48 3 -72 37 -37 100 -14 100 37 0 47 -71 71
-103 35z"/>
<path d="M3872 698 c-21 -28 -22 -54 -2 -76 28 -29 31 -28 18 8 -8 24 -7 35 6
55 13 20 14 25 2 25 -7 0 -18 -6 -24 -12z"/>
<path d="M2067 694 c-20 -21 5 -53 135 -176 79 -73 230 -219 338 -325 195
-192 195 -192 240 -193 45 0 47 2 151 108 58 59 125 125 150 146 136 120 409
397 409 415 0 19 -6 20 -300 16 -164 -2 -304 -6 -310 -10 -14 -9 -13 -52 2
-62 7 -4 106 -6 220 -6 114 1 210 -2 212 -6 3 -4 -27 -39 -66 -77 l-71 -69
-101 -5 -101 -5 0 -35 0 -35 53 -5 54 -5 -69 -64 c-37 -35 -105 -100 -150
-144 l-83 -79 -151 143 -152 144 113 5 c93 4 115 8 124 22 8 14 7 22 -7 35
-15 15 -39 18 -160 20 -78 1 -145 3 -148 3 -15 0 -158 143 -153 151 3 6 104 9
245 8 243 -1 269 3 269 37 0 30 -43 35 -333 38 -160 2 -306 7 -322 11 -17 3
-33 3 -38 -1z"/>
</g>
</svg>
